<?xml version="1.0" encoding="utf-8"?>
<!-- Generator: Adobe Illustrator 24.0.0, SVG Export Plug-In . SVG Version: 6.00 Build 0)  -->
<svg version="1.1" id="Layer_1" xmlns="http://www.w3.org/2000/svg" xmlns:xlink="http://www.w3.org/1999/xlink" x="0px" y="0px"
	 viewBox="0 0 1019.4 306" style="enable-background:new 0 0 1019.4 306;" xml:space="preserve">
<style type="text/css">
	.st0{fill:#001691;}
	.st1{fill:#D4BB73;}
</style>
<g>
	<circle class="st0" cx="515.3" cy="153" r="149.9"/>
	<g>
		<g>
			<polygon class="st1" points="552.5,92.9 565.7,105.1 547.2,122.2 528.2,104.8 542.9,91.3 515.3,65.9 487.7,91.3 502.4,104.8 
				483.5,122.2 464.9,105.1 478.2,92.9 435.1,72.5 440.5,129 590.1,129 595.6,72.5 			"/>
			<polygon class="st1" points="441.4,138 443.1,155.8 499.1,155.8 499.1,219.5 469.1,205.2 481.2,194.1 445.1,177 449,217.2 
				515.3,248.7 581.7,217.2 585.5,177 549.5,194.1 561.5,205.2 531.6,219.5 531.6,155.8 587.6,155.8 589.3,138 			"/>
		</g>
	</g>
</g>
</svg>
